<?xml version="1.0" encoding="UTF-8" standalone="no"?>
<svg
   version="1.1"
   width="18cm"
   height="12cm"
   viewBox="0 0 180000000 120000000"
   id="svg249"
   sodipodi:docname="Lily58_Pro-brd.svg"
   inkscape:version="1.4 (86a8ad7, 2024-10-11)"
   xmlns:inkscape="http://www.inkscape.org/namespaces/inkscape"
   xmlns:sodipodi="http://sodipodi.sourceforge.net/DTD/sodipodi-0.dtd"
   xmlns="http://www.w3.org/2000/svg"
   xmlns:svg="http://www.w3.org/2000/svg"
   xmlns:rdf="http://www.w3.org/1999/02/22-rdf-syntax-ns#"
   xmlns:cc="http://creativecommons.org/ns#"
   xmlns:dc="http://purl.org/dc/elements/1.1/">
  <defs
     id="defs249" />
  <sodipodi:namedview
     id="namedview249"
     pagecolor="#ffffff"
     bordercolor="#000000"
     borderopacity="0.25"
     inkscape:showpageshadow="2"
     inkscape:pageopacity="0.0"
     inkscape:pagecheckerboard="0"
     inkscape:deskcolor="#d1d1d1"
     inkscape:document-units="cm"
     inkscape:zoom="1.1327651"
     inkscape:cx="340.75909"
     inkscape:cy="285.58436"
     inkscape:window-width="1920"
     inkscape:window-height="1009"
     inkscape:window-x="-8"
     inkscape:window-y="-8"
     inkscape:window-maximized="1"
     inkscape:current-layer="svg249" />
  <title
     id="title1">SVG Picture created as Lily58_Pro-brd.svg date 2025/04/09 12:03:21 </title>
  <desc
     id="desc1">Picture generated by PCBNEW </desc>
  <g
     id="g250"
     transform="translate(7007189.9,12379369)">
    <g
       style="fill:#000000;fill-opacity:1;stroke:#000000;stroke-linecap:round;stroke-linejoin:round;stroke-opacity:1"
       id="g1"
       transform="translate(-26860894,-84086277)" />
    <g
       style="fill:#000000;fill-opacity:0;stroke:#000000;stroke-width:0;stroke-linecap:round;stroke-linejoin:round;stroke-opacity:1"
       id="g2"
       transform="translate(-26860894,-84086277)" />
    <g
       style="fill:#000000;fill-opacity:0;stroke:#000000;stroke-width:100000;stroke-linecap:round;stroke-linejoin:round;stroke-opacity:1"
       id="g5"
       transform="translate(-26860894,-84086277)">
      <circle
         cx="160344624"
         cy="145002768"
         r="2402082"
         id="circle2" />
      <circle
         cx="84144624"
         cy="142602768"
         r="2402082"
         id="circle3" />
      <circle
         cx="160344624"
         cy="106802768"
         r="2402082"
         id="circle4" />
      <circle
         cx="84146704"
         cy="104602768"
         r="2402082"
         id="circle5" />
    </g>
    <g
       style="fill:#000000;fill-opacity:1;stroke:#000000;stroke-width:1;stroke-linecap:round;stroke-linejoin:round;stroke-opacity:1"
       id="g6"
       transform="translate(-26860894,-84086277)">
      <circle
         cx="50000"
         cy="50000"
         r="50000"
         id="circle6" />
    </g>
    <g
       style="fill:#000000;fill-opacity:0;stroke:#000000;stroke-width:100000;stroke-linecap:round;stroke-linejoin:round;stroke-opacity:1"
       id="g68"
       transform="translate(-26860894,-84086277)">
      <circle
         cx="59544624"
         cy="159802768"
         r="2402082"
         id="circle7" />
      <g
         id="g7" />
      <g
         id="g8" />
      <g
         id="g9" />
      <g
         id="g10" />
      <g
         id="g11" />
      <g
         id="g12" />
      <g
         id="g13" />
      <g
         id="g14" />
      <g
         id="g15" />
      <g
         id="g16" />
      <g
         id="g17" />
      <g
         id="g18" />
      <g
         id="g19" />
      <g
         id="g20" />
      <g
         id="g21" />
      <g
         id="g22" />
      <g
         id="g23" />
      <g
         id="g24" />
      <g
         id="g25" />
      <g
         id="g26" />
      <g
         id="g27" />
      <g
         id="g28" />
      <g
         id="g29" />
      <g
         id="g30" />
      <g
         id="g31" />
      <g
         id="g32" />
      <g
         id="g33" />
      <g
         id="g34" />
      <g
         id="g35" />
      <g
         id="g36" />
      <g
         id="g37" />
      <g
         id="g38" />
      <g
         id="g39" />
      <g
         id="g40" />
      <g
         id="g41" />
      <g
         id="g42" />
      <g
         id="g43" />
      <g
         id="g44" />
      <g
         id="g45" />
      <g
         id="g46" />
      <g
         id="g47" />
      <g
         id="g48" />
      <g
         id="g49" />
      <g
         id="g50" />
      <g
         id="g51" />
      <g
         id="g52" />
      <g
         id="g53" />
      <g
         id="g54" />
      <g
         id="g55" />
      <g
         id="g56" />
      <g
         id="g57" />
      <g
         id="g58" />
      <g
         id="g59" />
      <g
         id="g60" />
      <g
         id="g61" />
      <g
         id="g62" />
      <g
         id="g63" />
      <g
         id="g64" />
      <g
         id="g65" />
      <g
         id="g66" />
      <g
         id="g67" />
    </g>
    <g
       style="fill:#000000;fill-opacity:0;stroke:#000000;stroke-width:100000;stroke-linecap:round;stroke-linejoin:round;stroke-opacity:1"
       id="g69"
       transform="translate(-26860894,-84086277)" />
    <g
       style="fill:#000000;fill-opacity:0;stroke:#000000;stroke-width:200000;stroke-linecap:round;stroke-linejoin:round;stroke-opacity:1"
       id="g249"
       transform="translate(-26860894,-84086277)">
      <path
         d="m 173239120,165792500 h 5267590"
         id="path69" />
      <path
         d="m 60679158,187304380 1675695,-970140"
         id="path70" />
      <path
         d="m 180006710,126366010 v 9481620"
         id="path71" />
      <path
         d="m 136366050,165792500 h 5267590"
         id="path72" />
      <path
         d="m 132866050,179014420 -30440,302500"
         id="path73" />
      <path
         d="m 37567363,82730619 96752,-178366"
         id="path74" />
      <path
         d="m 180006710,88439519 -1181530,-1280565"
         id="path75" />
      <path
         d="m 65706242,184393970 1675694,-970140"
         id="path76" />
      <path
         d="m 37506229,82927779 61134,-197160"
         id="path77" />
      <path
         d="m 40234710,153651890 1175101,3881540"
         id="path78" />
      <path
         d="m 179976260,164595000 -87340,281650"
         id="path79" />
      <path
         d="m 54593742,182189100 1675694,2866320"
         id="path80" />
      <path
         d="m 58835570,188360040 167894,-85520"
         id="path81" />
      <path
         d="m 132866050,174164660 v 1218040"
         id="path82" />
      <path
         d="m 58676912,188407230 158658,-47190"
         id="path83" />
      <path
         d="M 37484234,102060330 V 95753393"
         id="path84" />
      <path
         d="m 180006710,154810880 v 9481620"
         id="path85" />
      <path
         d="m 180006710,116884390 v 9481620"
         id="path86" />
      <path
         d="m 179888920,164876650 -138210,254810"
         id="path87" />
      <path
         d="m 133536270,82218418 -11738680,-128892"
         id="path88" />
      <path
         d="M 111389750,82089526 H 100981920"
         id="path89" />
      <path
         d="m 42838464,161320840 1701575,3671460"
         id="path90" />
      <path
         d="m 179750710,165131460 -183090,221950"
         id="path91" />
      <path
         d="m 131950210,180396640 -281660,87340"
         id="path92" />
      <path
         d="m 152168800,165792500 h 5267580"
         id="path93" />
      <path
         d="m 180006710,145329250 v 9481630"
         id="path94" />
      <path
         d="m 52918047,179322780 1675695,2866320"
         id="path95" />
      <path
         d="m 64030547,185364100 1675695,-970130"
         id="path96" />
      <path
         d="m 37484916,83139526 21313,-211747"
         id="path97" />
      <path
         d="m 58261034,188325300 128142,63910"
         id="path98" />
      <path
         d="m 58527958,188416740 148954,-9510"
         id="path99" />
      <path
         d="m 79779401,180514420 h 7369522"
         id="path100" />
      <path
         d="m 58389176,188389210 138782,27530"
         id="path101" />
      <path
         d="m 37484234,108367260 v -6306930"
         id="path102" />
      <path
         d="m 94518444,180514420 h 7369526"
         id="path103" />
      <path
         d="m 38323168,82110839 211748,-21313"
         id="path104" />
      <path
         d="m 162703960,165792500 h 5267580"
         id="path105" />
      <path
         d="M 37484234,89446459 V 83139526"
         id="path106" />
      <path
         d="m 67381936,183423830 1675695,-970140"
         id="path107" />
      <path
         d="m 58038543,188090910 105458,134740"
         id="path108" />
      <path
         d="m 179090860,165674720 -281660,87330"
         id="path109" />
      <path
         d="m 178809200,165762050 -302490,30450"
         id="path110" />
      <path
         d="m 109257490,180514420 h 7369520"
         id="path111" />
      <path
         d="m 180006710,135847630 v 9481620"
         id="path112" />
      <path
         d="m 37947643,82268725 178366,-96751"
         id="path113" />
      <path
         d="m 37682396,137620330 354607,4040100"
         id="path114" />
      <path
         d="m 132610060,179853380 -183090,221960"
         id="path115" />
      <path
         d="m 123996530,180514420 h 7369520"
         id="path116" />
      <path
         d="m 179567620,165353410 -221950,183090"
         id="path117" />
      <path
         d="m 133140880,167929480 322500,-594560"
         id="path118" />
      <path
         d="m 44539575,164991190 1675694,2866320"
         id="path119" />
      <path
         d="m 87148923,180514420 h 7369521"
         id="path120" />
      <path
         d="m 38126009,82171974 197159,-61135"
         id="path121" />
      <path
         d="m 51242353,176456470 1675694,2866310"
         id="path122" />
      <path
         d="m 38567678,145693590 726111,4004420"
         id="path123" />
      <path
         d="m 57945131,187921740 93412,169170"
         id="path124" />
      <path
         d="m 132866050,169292500 71050,-705820"
         id="path125" />
      <path
         d="m 131668550,180483980 -302500,30440"
         id="path126" />
      <path
         d="m 38037003,141660430 530675,4033160"
         id="path127" />
      <path
         d="m 141633640,165792500 h 5267580"
         id="path128" />
      <path
         d="m 58144001,188225650 117033,99650"
         id="path129" />
      <path
         d="m 37484234,133594990 v -6306930"
         id="path130" />
      <path
         d="m 180006710,88439519 v 9481623"
         id="path131" />
      <path
         d="M 100981920,82089526 H 90574085"
         id="path132" />
      <path
         d="m 135660230,165863540 705820,-71040"
         id="path133" />
      <path
         d="m 37484234,127288060 v -6306930"
         id="path134" />
      <path
         d="m 49566658,173590150 1675695,2866320"
         id="path135" />
      <path
         d="m 37792276,82396887 155367,-128162"
         id="path136" />
      <path
         d="m 132835610,179316920 -87340,281650"
         id="path137" />
      <path
         d="m 135003030,166067330 657200,-203790"
         id="path138" />
      <path
         d="m 101887970,180514420 h 7369520"
         id="path139" />
      <path
         d="m 37484234,120981130 v -6306940"
         id="path140" />
      <path
         d="M 90574085,82089526 H 80166251"
         id="path141" />
      <path
         d="m 132937100,168586680 203780,-657200"
         id="path142" />
      <path
         d="m 132866050,169292500 v 1218040"
         id="path143" />
      <path
         d="m 132748270,179598570 -138210,254810"
         id="path144" />
      <path
         d="m 72409879,180514420 h 7369522"
         id="path145" />
      <path
         d="m 144466240,82588138 -10929970,-369720"
         id="path146" />
      <path
         d="M 121797590,82089526 H 111389750"
         id="path147" />
      <path
         d="m 180006710,107402760 v 9481630"
         id="path148" />
      <path
         d="m 39293789,149698010 940921,3953880"
         id="path149" />
      <path
         d="m 157436380,165792500 h 5267580"
         id="path150" />
      <path
         d="m 37484483,133595080 197913,4025250"
         id="path151" />
      <path
         d="m 154354360,83173252 -9888120,-585114"
         id="path152" />
      <path
         d="m 116627010,180514420 h 7369520"
         id="path153" />
      <path
         d="m 41409811,157533430 1428653,3787410"
         id="path154" />
      <path
         d="m 59003464,188274520 1675694,-970140"
         id="path155" />
      <path
         d="m 132866050,171728580 v 1218040"
         id="path156" />
      <path
         d="m 146901220,165792500 h 5267580"
         id="path157" />
      <path
         d="m 178825180,87158954 -3389150,-1192343"
         id="path158" />
      <path
         d="m 132866050,177818780 v 1195640"
         id="path159" />
      <path
         d="m 175436030,85966611 -5363630,-1078688"
         id="path160" />
      <path
         d="M 48942750,82089526 H 38534916"
         id="path161" />
      <path
         d="m 179345670,165536500 -254810,138220"
         id="path162" />
      <path
         d="M 37484234,95753393 V 89446459"
         id="path163" />
      <path
         d="m 132866050,175382700 v 1218040"
         id="path164" />
      <path
         d="M 69758417,82089526 H 59350583"
         id="path165" />
      <path
         d="m 46215269,167857510 1675695,2866320"
         id="path166" />
      <path
         d="m 134408480,166389830 594550,-322500"
         id="path167" />
      <path
         d="M 59350583,82089526 H 48942750"
         id="path168" />
      <path
         d="m 133890590,166817040 517890,-427210"
         id="path169" />
      <path
         d="m 37664115,82552253 128161,-155366"
         id="path170" />
      <path
         d="m 132205010,180258420 -254800,138220"
         id="path171" />
      <path
         d="m 180006710,97921142 v 9481618"
         id="path172" />
      <path
         d="m 170072400,84887923 -7104940,-939598"
         id="path173" />
      <path
         d="m 133463380,167334920 427210,-517880"
         id="path174" />
      <path
         d="m 37484234,114674190 v -6306930"
         id="path175" />
      <path
         d="m 132866050,172946620 v 1218040"
         id="path176" />
      <path
         d="m 132426970,180075340 -221960,183080"
         id="path177" />
      <path
         d="m 69057631,182453690 1675694,-970140"
         id="path178" />
      <path
         d="m 47890964,170723830 1675694,2866320"
         id="path179" />
      <path
         d="m 167971540,165792500 h 5267580"
         id="path180" />
      <path
         d="m 70733325,181483550 1675694,-970140"
         id="path181" />
      <path
         d="m 162967460,83948325 -8613100,-775073"
         id="path182" />
      <path
         d="m 132866050,170510540 v 1218040"
         id="path183" />
      <path
         d="m 132866050,176600740 v 1218040"
         id="path184" />
      <path
         d="M 80166251,82089526 H 69758417"
         id="path185" />
      <path
         d="m 62354853,186334240 1675694,-970140"
         id="path186" />
      <path
         d="m 56269436,185055420 1675695,2866320"
         id="path187" />
      <path
         d="m 180006710,164292500 -30450,302500"
         id="path188" />
      <g
         id="g188" />
      <g
         id="g189" />
      <g
         id="g190" />
      <g
         id="g191" />
      <g
         id="g192" />
      <g
         id="g193" />
      <g
         id="g194" />
      <g
         id="g195" />
      <g
         id="g196" />
      <g
         id="g197" />
      <g
         id="g198" />
      <g
         id="g199" />
      <g
         id="g200" />
      <g
         id="g201" />
      <g
         id="g202" />
      <g
         id="g203" />
      <g
         id="g204" />
      <g
         id="g205" />
      <g
         id="g206" />
      <g
         id="g207" />
      <g
         id="g208" />
      <g
         id="g209" />
      <g
         id="g210" />
      <g
         id="g211" />
      <g
         id="g212" />
      <g
         id="g213" />
      <g
         id="g214" />
      <g
         id="g215" />
      <g
         id="g216" />
      <g
         id="g217" />
      <g
         id="g218" />
      <g
         id="g219" />
      <g
         id="g220" />
      <g
         id="g221" />
      <g
         id="g222" />
      <g
         id="g223" />
      <g
         id="g224" />
      <g
         id="g225" />
      <g
         id="g226" />
      <g
         id="g227" />
      <g
         id="g228" />
      <g
         id="g229" />
      <g
         id="g230" />
      <g
         id="g231" />
      <g
         id="g232" />
      <g
         id="g233" />
      <g
         id="g234" />
      <g
         id="g235" />
      <g
         id="g236" />
      <g
         id="g237" />
      <g
         id="g238" />
      <g
         id="g239" />
      <g
         id="g240" />
      <g
         id="g241" />
      <g
         id="g242" />
      <g
         id="g243" />
      <g
         id="g244" />
      <g
         id="g245" />
      <g
         id="g246" />
      <g
         id="g247" />
      <g
         id="g248" />
    </g>
  </g>
  <metadata
     id="metadata249">
    <rdf:RDF>
      <cc:Work
         rdf:about="">
        <dc:title>SVG Picture created as Lily58_Pro-brd.svg date 2025/04/09 12:03:21 </dc:title>
      </cc:Work>
    </rdf:RDF>
  </metadata>
</svg>
