  0
SECTION
  2
HEADER
  9
$ACADVER
  1
AC1014
  9
$HANDSEED
  5
FFFF
  9
$INSUNITS
 70
     5
  9
$MEASUREMENT
 70
     1
  0
ENDSEC
  0
SECTION
  2
TABLES
  0
TABLE
  2
VPORT
  5
8
330
0
100
AcDbSymbolTable
 70
     4
  0
VPORT
  5
2E
330
8
100
AcDbSymbolTableRecord
100
AcDbViewportTableRecord
  2
*ACTIVE
 70
     0
 10
0.0
 20
0.0
 11
1.0
 21
1.0
 12
210.0
 22
148.5
 13
0.0
 23
0.0
 14
10.0
 24
10.0
 15
10.0
 25
10.0
 16
0.0
 26
0.0
 36
1.0
 17
0.0
 27
0.0
 37
0.0
 40
341.0
 41
1.24
 42
50.0
 43
0.0
 44
0.0
 50
0.0
 51
0.0
 71
     0
 72
   100
 73
     1
 74
     3
 75
     0
 76
     0
 77
     0
 78
     0
  0
ENDTAB
  0
TABLE
  2
LTYPE
  5
5
330
0
100
AcDbSymbolTable
 70
     1
  0
LTYPE
  5
14
330
5
100
AcDbSymbolTableRecord
100
AcDbLinetypeTableRecord
  2
BYBLOCK
 70
     0
  3

 72
    65
 73
     0
 40
0.0
  0
LTYPE
  5
15
330
5
100
AcDbSymbolTableRecord
100
AcDbLinetypeTableRecord
  2
BYLAYER
 70
     0
  3

 72
    65
 73
     0
 40
0.0
  0
LTYPE
  5
16
330
5
100
AcDbSymbolTableRecord
100
AcDbLinetypeTableRecord
  2
CONTINUOUS
 70
     0
  3
Solid line
 72
    65
 73
     0
 40
0.0
  0
ENDTAB
  0
TABLE
  2
LAYER
  5
2
100
AcDbSymbolTable
 70
1
  0
LAYER
  5
50
100
AcDbSymbolTableRecord
100
AcDbLayerTableRecord
  2
0
 70
0
  6
CONTINUOUS
  0
ENDTAB
  0
TABLE
  2
STYLE
  5
3
330
0
100
AcDbSymbolTable
 70
     1
  0
STYLE
  5
11
330
3
100
AcDbSymbolTableRecord
100
AcDbTextStyleTableRecord
  2
STANDARD
 70
     0
 40
0.0
 41
1.0
 50
0.0
 71
     0
 42
2.5
  3
txt
  4

  0
ENDTAB
  0
TABLE
  2
VIEW
  5
6
330
0
100
AcDbSymbolTable
 70
     0
  0
ENDTAB
  0
TABLE
  2
UCS
  5
7
330
0
100
AcDbSymbolTable
 70
     0
  0
ENDTAB
  0
TABLE
  2
APPID
  5
9
330
0
100
AcDbSymbolTable
 70
     2
  0
APPID
  5
12
330
9
100
AcDbSymbolTableRecord
100
AcDbRegAppTableRecord
  2
ACAD
 70
     0
  0
ENDTAB
  0
TABLE
  2
DIMSTYLE
  5
A
330
0
100
AcDbSymbolTable
 70
     1
  0
DIMSTYLE
105
27
330
A
100
AcDbSymbolTableRecord
100
AcDbDimStyleTableRecord
  2
ISO-25
 70
     0
  3

  4

  5

  6

  7

 40
1.0
 41
2.5
 42
0.625
 43
3.75
 44
1.25
 45
0.0
 46
0.0
 47
0.0
 48
0.0
140
2.5
141
2.5
142
0.0
143
0.03937007874016
144
1.0
145
0.0
146
1.0
147
0.625
 71
     0
 72
     0
 73
     0
 74
     0
 75
     0
 76
     0
 77
     1
 78
     8
170
     0
171
     3
172
     1
173
     0
174
     0
175
     0
176
     0
177
     0
178
     0
270
     2
271
     2
272
     2
273
     2
274
     3
340
11
275
     0
280
     0
281
     0
282
     0
283
     0
284
     8
285
     0
286
     0
287
     3
288
     0
  0
ENDTAB
  0
TABLE
  2
BLOCK_RECORD
  5
1
330
0
100
AcDbSymbolTable
 70
     1
  0
BLOCK_RECORD
  5
1F
330
1
100
AcDbSymbolTableRecord
100
AcDbBlockTableRecord
  2
*MODEL_SPACE
  0
BLOCK_RECORD
  5
1B
330
1
100
AcDbSymbolTableRecord
100
AcDbBlockTableRecord
  2
*PAPER_SPACE
  0
ENDTAB
  0
ENDSEC
  0
SECTION
  2
BLOCKS
  0
BLOCK
  5
20
330
1F
100
AcDbEntity
  8
0
100
AcDbBlockBegin
  2
*MODEL_SPACE
 70
     0
 10
0.0
 20
0.0
 30
0.0
  3
*MODEL_SPACE
  1

  0
ENDBLK
  5
21
330
1F
100
AcDbEntity
  8
0
100
AcDbBlockEnd
  0
BLOCK
  5
1C
330
1B
100
AcDbEntity
 67
     1
  8
0
100
AcDbBlockBegin
  2
*PAPER_SPACE
  1

  0
ENDBLK
  5
1D
330
1B
100
AcDbEntity
 67
     1
  8
0
100
AcDbBlockEnd
  0
ENDSEC
  0
SECTION
  2
ENTITIES
  0
SPLINE
  5
100
100
AcDbEntity
  8
0
 62
7
100
AcDbSpline
 70
8
 71
3
 72
8
 73
4
 74
0
 40
0
 40
0
 40
0
 40
0
 40
1
 40
1
 40
1
 40
1
 10
14.049091
 20
4.910621
 30
0.0
 10
13.951936
 20
4.910621
 30
0.0
 10
13.864348
 20
4.852097
 30
0.0
 10
13.827168
 20
4.762337
 30
0.0
  0
SPLINE
  5
101
100
AcDbEntity
  8
0
 62
7
100
AcDbSpline
 70
8
 71
3
 72
8
 73
4
 74
0
 40
0
 40
0
 40
0
 40
0
 40
1
 40
1
 40
1
 40
1
 10
13.827168
 20
4.762337
 30
0.0
 10
13.789988
 20
4.672577
 30
0.0
 10
13.810539
 20
4.569259
 30
0.0
 10
13.879239
 20
4.500560
 30
0.0
  0
SPLINE
  5
102
100
AcDbEntity
  8
0
 62
7
100
AcDbSpline
 70
8
 71
3
 72
8
 73
4
 74
0
 40
0
 40
0
 40
0
 40
0
 40
1
 40
1
 40
1
 40
1
 10
13.879239
 20
4.500560
 30
0.0
 10
13.947938
 20
4.431861
 30
0.0
 10
14.051255
 20
4.411310
 30
0.0
 10
14.141015
 20
4.448490
 30
0.0
  0
SPLINE
  5
103
100
AcDbEntity
  8
0
 62
7
100
AcDbSpline
 70
8
 71
3
 72
8
 73
4
 74
0
 40
0
 40
0
 40
0
 40
0
 40
1
 40
1
 40
1
 40
1
 10
14.141015
 20
4.448490
 30
0.0
 10
14.230775
 20
4.485669
 30
0.0
 10
14.289300
 20
4.573258
 30
0.0
 10
14.289300
 20
4.670413
 30
0.0
  0
SPLINE
  5
104
100
AcDbEntity
  8
0
 62
7
100
AcDbSpline
 70
8
 71
3
 72
8
 73
4
 74
0
 40
0
 40
0
 40
0
 40
0
 40
1
 40
1
 40
1
 40
1
 10
14.289300
 20
4.670413
 30
0.0
 10
14.289300
 20
4.734120
 30
0.0
 10
14.263992
 20
4.795218
 30
0.0
 10
14.218944
 20
4.840266
 30
0.0
  0
SPLINE
  5
105
100
AcDbEntity
  8
0
 62
7
100
AcDbSpline
 70
8
 71
3
 72
8
 73
4
 74
0
 40
0
 40
0
 40
0
 40
0
 40
1
 40
1
 40
1
 40
1
 10
14.218944
 20
4.840266
 30
0.0
 10
14.173896
 20
4.885314
 30
0.0
 10
14.112799
 20
4.910621
 30
0.0
 10
14.049091
 20
4.910621
 30
0.0
  0
SPLINE
  5
106
100
AcDbEntity
  8
0
 62
7
100
AcDbSpline
 70
8
 71
3
 72
8
 73
4
 74
0
 40
0
 40
0
 40
0
 40
0
 40
1
 40
1
 40
1
 40
1
 10
6.429091
 20
5.150621
 30
0.0
 10
6.331936
 20
5.150621
 30
0.0
 10
6.244348
 20
5.092097
 30
0.0
 10
6.207168
 20
5.002337
 30
0.0
  0
SPLINE
  5
107
100
AcDbEntity
  8
0
 62
7
100
AcDbSpline
 70
8
 71
3
 72
8
 73
4
 74
0
 40
0
 40
0
 40
0
 40
0
 40
1
 40
1
 40
1
 40
1
 10
6.207168
 20
5.002337
 30
0.0
 10
6.169988
 20
4.912577
 30
0.0
 10
6.190539
 20
4.809259
 30
0.0
 10
6.259239
 20
4.740560
 30
0.0
  0
SPLINE
  5
108
100
AcDbEntity
  8
0
 62
7
100
AcDbSpline
 70
8
 71
3
 72
8
 73
4
 74
0
 40
0
 40
0
 40
0
 40
0
 40
1
 40
1
 40
1
 40
1
 10
6.259239
 20
4.740560
 30
0.0
 10
6.327938
 20
4.671861
 30
0.0
 10
6.431255
 20
4.651310
 30
0.0
 10
6.521015
 20
4.688490
 30
0.0
  0
SPLINE
  5
109
100
AcDbEntity
  8
0
 62
7
100
AcDbSpline
 70
8
 71
3
 72
8
 73
4
 74
0
 40
0
 40
0
 40
0
 40
0
 40
1
 40
1
 40
1
 40
1
 10
6.521015
 20
4.688490
 30
0.0
 10
6.610775
 20
4.725669
 30
0.0
 10
6.669300
 20
4.813258
 30
0.0
 10
6.669300
 20
4.910413
 30
0.0
  0
SPLINE
  5
10a
100
AcDbEntity
  8
0
 62
7
100
AcDbSpline
 70
8
 71
3
 72
8
 73
4
 74
0
 40
0
 40
0
 40
0
 40
0
 40
1
 40
1
 40
1
 40
1
 10
6.669300
 20
4.910413
 30
0.0
 10
6.669300
 20
4.974120
 30
0.0
 10
6.643992
 20
5.035218
 30
0.0
 10
6.598944
 20
5.080266
 30
0.0
  0
SPLINE
  5
10b
100
AcDbEntity
  8
0
 62
7
100
AcDbSpline
 70
8
 71
3
 72
8
 73
4
 74
0
 40
0
 40
0
 40
0
 40
0
 40
1
 40
1
 40
1
 40
1
 10
6.598944
 20
5.080266
 30
0.0
 10
6.553896
 20
5.125314
 30
0.0
 10
6.492799
 20
5.150621
 30
0.0
 10
6.429091
 20
5.150621
 30
0.0
  0
LWPOLYLINE
  5
10c
100
AcDbEntity
  8
0
 62
7
100
AcDbPolyline
 90
1
 70
1
 10
14.049091
 20
4.910621
 30
0.0
  0
SPLINE
  5
10d
100
AcDbEntity
  8
0
 62
7
100
AcDbSpline
 70
8
 71
3
 72
8
 73
4
 74
0
 40
0
 40
0
 40
0
 40
0
 40
1
 40
1
 40
1
 40
1
 10
14.049091
 20
8.730621
 30
0.0
 10
13.951936
 20
8.730621
 30
0.0
 10
13.864348
 20
8.672097
 30
0.0
 10
13.827168
 20
8.582337
 30
0.0
  0
SPLINE
  5
10e
100
AcDbEntity
  8
0
 62
7
100
AcDbSpline
 70
8
 71
3
 72
8
 73
4
 74
0
 40
0
 40
0
 40
0
 40
0
 40
1
 40
1
 40
1
 40
1
 10
13.827168
 20
8.582337
 30
0.0
 10
13.789988
 20
8.492577
 30
0.0
 10
13.810539
 20
8.389259
 30
0.0
 10
13.879239
 20
8.320560
 30
0.0
  0
SPLINE
  5
10f
100
AcDbEntity
  8
0
 62
7
100
AcDbSpline
 70
8
 71
3
 72
8
 73
4
 74
0
 40
0
 40
0
 40
0
 40
0
 40
1
 40
1
 40
1
 40
1
 10
13.879239
 20
8.320560
 30
0.0
 10
13.947938
 20
8.251861
 30
0.0
 10
14.051255
 20
8.231310
 30
0.0
 10
14.141015
 20
8.268490
 30
0.0
  0
SPLINE
  5
110
100
AcDbEntity
  8
0
 62
7
100
AcDbSpline
 70
8
 71
3
 72
8
 73
4
 74
0
 40
0
 40
0
 40
0
 40
0
 40
1
 40
1
 40
1
 40
1
 10
14.141015
 20
8.268490
 30
0.0
 10
14.230775
 20
8.305669
 30
0.0
 10
14.289300
 20
8.393258
 30
0.0
 10
14.289300
 20
8.490413
 30
0.0
  0
SPLINE
  5
111
100
AcDbEntity
  8
0
 62
7
100
AcDbSpline
 70
8
 71
3
 72
8
 73
4
 74
0
 40
0
 40
0
 40
0
 40
0
 40
1
 40
1
 40
1
 40
1
 10
14.289300
 20
8.490413
 30
0.0
 10
14.289300
 20
8.554120
 30
0.0
 10
14.263992
 20
8.615218
 30
0.0
 10
14.218944
 20
8.660266
 30
0.0
  0
SPLINE
  5
112
100
AcDbEntity
  8
0
 62
7
100
AcDbSpline
 70
8
 71
3
 72
8
 73
4
 74
0
 40
0
 40
0
 40
0
 40
0
 40
1
 40
1
 40
1
 40
1
 10
14.218944
 20
8.660266
 30
0.0
 10
14.173896
 20
8.705314
 30
0.0
 10
14.112799
 20
8.730621
 30
0.0
 10
14.049091
 20
8.730621
 30
0.0
  0
LWPOLYLINE
  5
113
100
AcDbEntity
  8
0
 62
7
100
AcDbPolyline
 90
1
 70
1
 10
6.429091
 20
5.150621
 30
0.0
  0
SPLINE
  5
114
100
AcDbEntity
  8
0
 62
7
100
AcDbSpline
 70
8
 71
3
 72
8
 73
4
 74
0
 40
0
 40
0
 40
0
 40
0
 40
1
 40
1
 40
1
 40
1
 10
6.429299
 20
8.950621
 30
0.0
 10
6.332144
 20
8.950621
 30
0.0
 10
6.244556
 20
8.892097
 30
0.0
 10
6.207376
 20
8.802337
 30
0.0
  0
SPLINE
  5
115
100
AcDbEntity
  8
0
 62
7
100
AcDbSpline
 70
8
 71
3
 72
8
 73
4
 74
0
 40
0
 40
0
 40
0
 40
0
 40
1
 40
1
 40
1
 40
1
 10
6.207376
 20
8.802337
 30
0.0
 10
6.170196
 20
8.712577
 30
0.0
 10
6.190747
 20
8.609259
 30
0.0
 10
6.259447
 20
8.540560
 30
0.0
  0
SPLINE
  5
116
100
AcDbEntity
  8
0
 62
7
100
AcDbSpline
 70
8
 71
3
 72
8
 73
4
 74
0
 40
0
 40
0
 40
0
 40
0
 40
1
 40
1
 40
1
 40
1
 10
6.259447
 20
8.540560
 30
0.0
 10
6.328146
 20
8.471861
 30
0.0
 10
6.431463
 20
8.451310
 30
0.0
 10
6.521223
 20
8.488490
 30
0.0
  0
SPLINE
  5
117
100
AcDbEntity
  8
0
 62
7
100
AcDbSpline
 70
8
 71
3
 72
8
 73
4
 74
0
 40
0
 40
0
 40
0
 40
0
 40
1
 40
1
 40
1
 40
1
 10
6.521223
 20
8.488490
 30
0.0
 10
6.610983
 20
8.525669
 30
0.0
 10
6.669508
 20
8.613258
 30
0.0
 10
6.669508
 20
8.710413
 30
0.0
  0
SPLINE
  5
118
100
AcDbEntity
  8
0
 62
7
100
AcDbSpline
 70
8
 71
3
 72
8
 73
4
 74
0
 40
0
 40
0
 40
0
 40
0
 40
1
 40
1
 40
1
 40
1
 10
6.669508
 20
8.710413
 30
0.0
 10
6.669508
 20
8.774120
 30
0.0
 10
6.644200
 20
8.835218
 30
0.0
 10
6.599152
 20
8.880266
 30
0.0
  0
SPLINE
  5
119
100
AcDbEntity
  8
0
 62
7
100
AcDbSpline
 70
8
 71
3
 72
8
 73
4
 74
0
 40
0
 40
0
 40
0
 40
0
 40
1
 40
1
 40
1
 40
1
 10
6.599152
 20
8.880266
 30
0.0
 10
6.554104
 20
8.925314
 30
0.0
 10
6.493007
 20
8.950621
 30
0.0
 10
6.429299
 20
8.950621
 30
0.0
  0
LWPOLYLINE
  5
11a
100
AcDbEntity
  8
0
 62
7
100
AcDbPolyline
 90
1
 70
1
 10
14.049091
 20
8.730621
 30
0.0
  0
SPLINE
  5
11b
100
AcDbEntity
  8
0
 62
7
100
AcDbSpline
 70
8
 71
3
 72
8
 73
4
 74
0
 40
0
 40
0
 40
0
 40
0
 40
1
 40
1
 40
1
 40
1
 10
-1.980371
 20
19.170690
 30
0.0
 10
-1.982393
 20
19.170690
 30
0.0
 10
-1.984216
 20
19.169472
 30
0.0
 10
-1.984990
 20
19.167603
 30
0.0
  0
SPLINE
  5
11c
100
AcDbEntity
  8
0
 62
7
100
AcDbSpline
 70
8
 71
3
 72
8
 73
4
 74
0
 40
0
 40
0
 40
0
 40
0
 40
1
 40
1
 40
1
 40
1
 10
-1.984990
 20
19.167603
 30
0.0
 10
-1.985764
 20
19.165735
 30
0.0
 10
-1.985337
 20
19.163584
 30
0.0
 10
-1.983907
 20
19.162154
 30
0.0
  0
SPLINE
  5
11d
100
AcDbEntity
  8
0
 62
7
100
AcDbSpline
 70
8
 71
3
 72
8
 73
4
 74
0
 40
0
 40
0
 40
0
 40
0
 40
1
 40
1
 40
1
 40
1
 10
-1.983907
 20
19.162154
 30
0.0
 10
-1.982477
 20
19.160724
 30
0.0
 10
-1.980326
 20
19.160297
 30
0.0
 10
-1.978458
 20
19.161071
 30
0.0
  0
SPLINE
  5
11e
100
AcDbEntity
  8
0
 62
7
100
AcDbSpline
 70
8
 71
3
 72
8
 73
4
 74
0
 40
0
 40
0
 40
0
 40
0
 40
1
 40
1
 40
1
 40
1
 10
-1.978458
 20
19.161071
 30
0.0
 10
-1.976589
 20
19.161845
 30
0.0
 10
-1.975371
 20
19.163668
 30
0.0
 10
-1.975371
 20
19.165690
 30
0.0
  0
SPLINE
  5
11f
100
AcDbEntity
  8
0
 62
7
100
AcDbSpline
 70
8
 71
3
 72
8
 73
4
 74
0
 40
0
 40
0
 40
0
 40
0
 40
1
 40
1
 40
1
 40
1
 10
-1.975371
 20
19.165690
 30
0.0
 10
-1.975371
 20
19.167016
 30
0.0
 10
-1.975898
 20
19.168288
 30
0.0
 10
-1.976835
 20
19.169226
 30
0.0
  0
SPLINE
  5
120
100
AcDbEntity
  8
0
 62
7
100
AcDbSpline
 70
8
 71
3
 72
8
 73
4
 74
0
 40
0
 40
0
 40
0
 40
0
 40
1
 40
1
 40
1
 40
1
 10
-1.976835
 20
19.169226
 30
0.0
 10
-1.977773
 20
19.170163
 30
0.0
 10
-1.979045
 20
19.170690
 30
0.0
 10
-1.980371
 20
19.170690
 30
0.0
  0
LWPOLYLINE
  5
121
100
AcDbEntity
  8
0
 62
7
100
AcDbPolyline
 90
1
 70
1
 10
6.429299
 20
8.950621
 30
0.0
  0
SPLINE
  5
122
100
AcDbEntity
  8
0
 62
7
100
AcDbSpline
 70
8
 71
3
 72
8
 73
4
 74
0
 40
0
 40
0
 40
0
 40
0
 40
1
 40
1
 40
1
 40
1
 10
3.969091
 20
3.430621
 30
0.0
 10
3.871936
 20
3.430621
 30
0.0
 10
3.784348
 20
3.372097
 30
0.0
 10
3.747168
 20
3.282337
 30
0.0
  0
SPLINE
  5
123
100
AcDbEntity
  8
0
 62
7
100
AcDbSpline
 70
8
 71
3
 72
8
 73
4
 74
0
 40
0
 40
0
 40
0
 40
0
 40
1
 40
1
 40
1
 40
1
 10
3.747168
 20
3.282337
 30
0.0
 10
3.709988
 20
3.192577
 30
0.0
 10
3.730539
 20
3.089259
 30
0.0
 10
3.799239
 20
3.020560
 30
0.0
  0
SPLINE
  5
124
100
AcDbEntity
  8
0
 62
7
100
AcDbSpline
 70
8
 71
3
 72
8
 73
4
 74
0
 40
0
 40
0
 40
0
 40
0
 40
1
 40
1
 40
1
 40
1
 10
3.799239
 20
3.020560
 30
0.0
 10
3.867938
 20
2.951861
 30
0.0
 10
3.971255
 20
2.931310
 30
0.0
 10
4.061015
 20
2.968490
 30
0.0
  0
SPLINE
  5
125
100
AcDbEntity
  8
0
 62
7
100
AcDbSpline
 70
8
 71
3
 72
8
 73
4
 74
0
 40
0
 40
0
 40
0
 40
0
 40
1
 40
1
 40
1
 40
1
 10
4.061015
 20
2.968490
 30
0.0
 10
4.150775
 20
3.005669
 30
0.0
 10
4.209300
 20
3.093258
 30
0.0
 10
4.209300
 20
3.190413
 30
0.0
  0
SPLINE
  5
126
100
AcDbEntity
  8
0
 62
7
100
AcDbSpline
 70
8
 71
3
 72
8
 73
4
 74
0
 40
0
 40
0
 40
0
 40
0
 40
1
 40
1
 40
1
 40
1
 10
4.209300
 20
3.190413
 30
0.0
 10
4.209300
 20
3.254120
 30
0.0
 10
4.183992
 20
3.315218
 30
0.0
 10
4.138944
 20
3.360266
 30
0.0
  0
SPLINE
  5
127
100
AcDbEntity
  8
0
 62
7
100
AcDbSpline
 70
8
 71
3
 72
8
 73
4
 74
0
 40
0
 40
0
 40
0
 40
0
 40
1
 40
1
 40
1
 40
1
 10
4.138944
 20
3.360266
 30
0.0
 10
4.093896
 20
3.405314
 30
0.0
 10
4.032799
 20
3.430621
 30
0.0
 10
3.969091
 20
3.430621
 30
0.0
  0
LWPOLYLINE
  5
128
100
AcDbEntity
  8
0
 62
7
100
AcDbPolyline
 90
1
 70
1
 10
-1.980371
 20
19.170690
 30
0.0
  0
LWPOLYLINE
  5
129
100
AcDbEntity
  8
0
 62
7
100
AcDbPolyline
 90
1
 70
1
 10
3.969091
 20
3.430621
 30
0.0
  0
LWPOLYLINE
  5
12a
100
AcDbEntity
  8
0
 62
7
100
AcDbPolyline
 90
2
 70
0
 10
15.338541
 20
2.591440
 30
0.0
 10
15.865300
 20
2.591440
 30
0.0
  0
LWPOLYLINE
  5
12b
100
AcDbEntity
  8
0
 62
7
100
AcDbPolyline
 90
2
 70
0
 10
4.082545
 20
0.440252
 30
0.0
 10
4.250114
 20
0.537266
 30
0.0
  0
LWPOLYLINE
  5
12c
100
AcDbEntity
  8
0
 62
7
100
AcDbPolyline
 90
2
 70
0
 10
16.015300
 20
6.534089
 30
0.0
 10
16.015300
 20
5.585927
 30
0.0
  0
LWPOLYLINE
  5
12d
100
AcDbEntity
  8
0
 62
7
100
AcDbPolyline
 90
2
 70
0
 10
11.651234
 20
2.591440
 30
0.0
 10
12.177993
 20
2.591440
 30
0.0
  0
LWPOLYLINE
  5
12e
100
AcDbEntity
  8
0
 62
7
100
AcDbPolyline
 90
2
 70
0
 10
11.301234
 20
1.269248
 30
0.0
 10
11.298190
 20
1.238998
 30
0.0
  0
LWPOLYLINE
  5
12f
100
AcDbEntity
  8
0
 62
7
100
AcDbPolyline
 90
2
 70
0
 10
1.771365
 20
10.897628
 30
0.0
 10
1.781040
 20
10.915465
 30
0.0
  0
LWPOLYLINE
  5
130
100
AcDbEntity
  8
0
 62
7
100
AcDbPolyline
 90
2
 70
0
 10
16.015300
 20
10.326738
 30
0.0
 10
15.897147
 20
10.454795
 30
0.0
  0
LWPOLYLINE
  5
131
100
AcDbEntity
  8
0
 62
7
100
AcDbPolyline
 90
2
 70
0
 10
4.585253
 20
0.731293
 30
0.0
 10
4.752823
 20
0.828307
 30
0.0
  0
LWPOLYLINE
  5
132
100
AcDbEntity
  8
0
 62
7
100
AcDbPolyline
 90
2
 70
0
 10
1.765252
 20
10.877912
 30
0.0
 10
1.771365
 20
10.897628
 30
0.0
  0
LWPOLYLINE
  5
133
100
AcDbEntity
  8
0
 62
7
100
AcDbPolyline
 90
2
 70
0
 10
2.038100
 20
3.805501
 30
0.0
 10
2.155610
 20
3.417347
 30
0.0
  0
LWPOLYLINE
  5
134
100
AcDbEntity
  8
0
 62
7
100
AcDbPolyline
 90
2
 70
0
 10
16.012255
 20
2.711190
 30
0.0
 10
16.003521
 20
2.683025
 30
0.0
  0
LWPOLYLINE
  5
135
100
AcDbEntity
  8
0
 62
7
100
AcDbPolyline
 90
2
 70
0
 10
3.474003
 20
0.951780
 30
0.0
 10
3.641573
 20
0.665148
 30
0.0
  0
LWPOLYLINE
  5
136
100
AcDbEntity
  8
0
 62
7
100
AcDbPolyline
 90
2
 70
0
 10
3.898186
 20
0.334686
 30
0.0
 10
3.914975
 20
0.343238
 30
0.0
  0
LWPOLYLINE
  5
137
100
AcDbEntity
  8
0
 62
7
100
AcDbPolyline
 90
2
 70
0
 10
11.301234
 20
1.754224
 30
0.0
 10
11.301234
 20
1.632420
 30
0.0
  0
LWPOLYLINE
  5
138
100
AcDbEntity
  8
0
 62
7
100
AcDbPolyline
 90
2
 70
0
 10
3.882320
 20
0.329967
 30
0.0
 10
3.898186
 20
0.334686
 30
0.0
  0
LWPOLYLINE
  5
139
100
AcDbEntity
  8
0
 62
7
100
AcDbPolyline
 90
2
 70
0
 10
1.763052
 20
8.964657
 30
0.0
 10
1.763052
 20
9.595351
 30
0.0
  0
LWPOLYLINE
  5
13a
100
AcDbEntity
  8
0
 62
7
100
AcDbPolyline
 90
2
 70
0
 10
16.015300
 20
3.689602
 30
0.0
 10
16.015300
 20
2.741440
 30
0.0
  0
LWPOLYLINE
  5
13b
100
AcDbEntity
  8
0
 62
7
100
AcDbPolyline
 90
2
 70
0
 10
16.015300
 20
7.482251
 30
0.0
 10
16.015300
 20
6.534089
 30
0.0
  0
LWPOLYLINE
  5
13c
100
AcDbEntity
  8
0
 62
7
100
AcDbPolyline
 90
2
 70
0
 10
16.003521
 20
2.683025
 30
0.0
 10
15.989700
 20
2.657544
 30
0.0
  0
LWPOLYLINE
  5
13d
100
AcDbEntity
  8
0
 62
7
100
AcDbPolyline
 90
2
 70
0
 10
11.368256
 20
10.948848
 30
0.0
 10
10.194388
 20
10.961737
 30
0.0
  0
LWPOLYLINE
  5
13e
100
AcDbEntity
  8
0
 62
7
100
AcDbPolyline
 90
2
 70
0
 10
9.153604
 20
10.961737
 30
0.0
 10
8.112821
 20
10.961737
 30
0.0
  0
LWPOLYLINE
  5
13f
100
AcDbEntity
  8
0
 62
7
100
AcDbPolyline
 90
2
 70
0
 10
2.298475
 20
3.038606
 30
0.0
 10
2.468633
 20
2.671460
 30
0.0
  0
LWPOLYLINE
  5
140
100
AcDbEntity
  8
0
 62
7
100
AcDbPolyline
 90
2
 70
0
 10
15.989700
 20
2.657544
 30
0.0
 10
15.971391
 20
2.635349
 30
0.0
  0
LWPOLYLINE
  5
141
100
AcDbEntity
  8
0
 62
7
100
AcDbPolyline
 90
2
 70
0
 10
11.209650
 20
1.131026
 30
0.0
 10
11.181484
 20
1.122292
 30
0.0
  0
LWPOLYLINE
  5
142
100
AcDbEntity
  8
0
 62
7
100
AcDbPolyline
 90
2
 70
0
 10
13.231509
 20
2.591440
 30
0.0
 10
13.758267
 20
2.591440
 30
0.0
  0
LWPOLYLINE
  5
143
100
AcDbEntity
  8
0
 62
7
100
AcDbPolyline
 90
2
 70
0
 10
16.015300
 20
4.637765
 30
0.0
 10
16.015300
 20
3.689602
 30
0.0
  0
LWPOLYLINE
  5
144
100
AcDbEntity
  8
0
 62
7
100
AcDbPolyline
 90
2
 70
0
 10
3.306434
 20
1.238412
 30
0.0
 10
3.474003
 20
0.951780
 30
0.0
  0
LWPOLYLINE
  5
145
100
AcDbEntity
  8
0
 62
7
100
AcDbPolyline
 90
2
 70
0
 10
4.417684
 20
0.634280
 30
0.0
 10
4.585253
 20
0.731293
 30
0.0
  0
LWPOLYLINE
  5
146
100
AcDbEntity
  8
0
 62
7
100
AcDbPolyline
 90
2
 70
0
 10
1.763121
 20
10.856737
 30
0.0
 10
1.765252
 20
10.877912
 30
0.0
  0
LWPOLYLINE
  5
147
100
AcDbEntity
  8
0
 62
7
100
AcDbPolyline
 90
2
 70
0
 10
3.840732
 20
0.338160
 30
0.0
 10
3.853547
 20
0.331769
 30
0.0
  0
LWPOLYLINE
  5
148
100
AcDbEntity
  8
0
 62
7
100
AcDbPolyline
 90
2
 70
0
 10
3.867425
 20
0.329016
 30
0.0
 10
3.882320
 20
0.329967
 30
0.0
  0
LWPOLYLINE
  5
149
100
AcDbEntity
  8
0
 62
7
100
AcDbPolyline
 90
2
 70
0
 10
5.992569
 20
1.119248
 30
0.0
 10
6.729521
 20
1.119248
 30
0.0
  0
LWPOLYLINE
  5
14a
100
AcDbEntity
  8
0
 62
7
100
AcDbPolyline
 90
2
 70
0
 10
3.853547
 20
0.331769
 30
0.0
 10
3.867425
 20
0.329016
 30
0.0
  0
LWPOLYLINE
  5
14b
100
AcDbEntity
  8
0
 62
7
100
AcDbPolyline
 90
2
 70
0
 10
1.763052
 20
8.333964
 30
0.0
 10
1.763052
 20
8.964657
 30
0.0
  0
LWPOLYLINE
  5
14c
100
AcDbEntity
  8
0
 62
7
100
AcDbPolyline
 90
2
 70
0
 10
7.466473
 20
1.119248
 30
0.0
 10
8.203426
 20
1.119248
 30
0.0
  0
LWPOLYLINE
  5
14d
100
AcDbEntity
  8
0
 62
7
100
AcDbPolyline
 90
2
 70
0
 10
1.846946
 20
10.959606
 30
0.0
 10
1.868121
 20
10.961737
 30
0.0
  0
LWPOLYLINE
  5
14e
100
AcDbEntity
  8
0
 62
7
100
AcDbPolyline
 90
2
 70
0
 10
14.285025
 20
2.591440
 30
0.0
 10
14.811783
 20
2.591440
 30
0.0
  0
LWPOLYLINE
  5
14f
100
AcDbEntity
  8
0
 62
7
100
AcDbPolyline
 90
2
 70
0
 10
1.763052
 20
10.226044
 30
0.0
 10
1.763052
 20
10.856737
 30
0.0
  0
LWPOLYLINE
  5
150
100
AcDbEntity
  8
0
 62
7
100
AcDbPolyline
 90
2
 70
0
 10
4.752823
 20
0.828307
 30
0.0
 10
4.920392
 20
0.925321
 30
0.0
  0
LWPOLYLINE
  5
151
100
AcDbEntity
  8
0
 62
7
100
AcDbPolyline
 90
2
 70
0
 10
3.818483
 20
0.361599
 30
0.0
 10
3.829029
 20
0.348125
 30
0.0
  0
LWPOLYLINE
  5
152
100
AcDbEntity
  8
0
 62
7
100
AcDbPolyline
 90
3
 70
0
 10
15.923715
 20
2.603218
 30
0.0
 10
15.895549
 20
2.594485
 30
0.0
 10
15.865300
 20
2.591440
 30
0.0
  0
LWPOLYLINE
  5
153
100
AcDbEntity
  8
0
 62
7
100
AcDbPolyline
 90
2
 70
0
 10
8.940378
 20
1.119248
 30
0.0
 10
9.677330
 20
1.119248
 30
0.0
  0
LWPOLYLINE
  5
154
100
AcDbEntity
  8
0
 62
7
100
AcDbPolyline
 90
2
 70
0
 10
16.015300
 20
5.585927
 30
0.0
 10
16.015300
 20
4.637765
 30
0.0
  0
LWPOLYLINE
  5
155
100
AcDbEntity
  8
0
 62
7
100
AcDbPolyline
 90
2
 70
0
 10
1.809393
 20
10.943818
 30
0.0
 10
1.827230
 20
10.953493
 30
0.0
  0
LWPOLYLINE
  5
156
100
AcDbEntity
  8
0
 62
7
100
AcDbPolyline
 90
2
 70
0
 10
1.782869
 20
5.408657
 30
0.0
 10
1.818329
 20
5.004647
 30
0.0
  0
LWPOLYLINE
  5
157
100
AcDbEntity
  8
0
 62
7
100
AcDbPolyline
 90
2
 70
0
 10
11.275635
 20
1.185352
 30
0.0
 10
11.257326
 20
1.163156
 30
0.0
  0
LWPOLYLINE
  5
158
100
AcDbEntity
  8
0
 62
7
100
AcDbPolyline
 90
2
 70
0
 10
10.414282
 20
1.119248
 30
0.0
 10
11.151234
 20
1.119248
 30
0.0
  0
LWPOLYLINE
  5
159
100
AcDbEntity
  8
0
 62
7
100
AcDbPolyline
 90
2
 70
0
 10
15.971391
 20
2.635349
 30
0.0
 10
15.949196
 20
2.617040
 30
0.0
  0
LWPOLYLINE
  5
15a
100
AcDbEntity
  8
0
 62
7
100
AcDbPolyline
 90
2
 70
0
 10
11.328717
 20
2.377742
 30
0.0
 10
11.360967
 20
2.437198
 30
0.0
  0
LWPOLYLINE
  5
15b
100
AcDbEntity
  8
0
 62
7
100
AcDbPolyline
 90
2
 70
0
 10
2.468586
 20
2.671571
 30
0.0
 10
2.636156
 20
2.384939
 30
0.0
  0
LWPOLYLINE
  5
15c
100
AcDbEntity
  8
0
 62
7
100
AcDbPolyline
 90
2
 70
0
 10
6.729521
 20
1.119248
 30
0.0
 10
7.466473
 20
1.119248
 30
0.0
  0
LWPOLYLINE
  5
15d
100
AcDbEntity
  8
0
 62
7
100
AcDbPolyline
 90
2
 70
0
 10
1.827230
 20
10.953493
 30
0.0
 10
1.846946
 20
10.959606
 30
0.0
  0
LWPOLYLINE
  5
15e
100
AcDbEntity
  8
0
 62
7
100
AcDbPolyline
 90
2
 70
0
 10
3.138864
 20
1.525043
 30
0.0
 10
3.306434
 20
1.238412
 30
0.0
  0
LWPOLYLINE
  5
15f
100
AcDbEntity
  8
0
 62
7
100
AcDbPolyline
 90
2
 70
0
 10
1.871397
 20
4.601331
 30
0.0
 10
1.944008
 20
4.200889
 30
0.0
  0
LWPOLYLINE
  5
160
100
AcDbEntity
  8
0
 62
7
100
AcDbPolyline
 90
2
 70
0
 10
3.809142
 20
0.378516
 30
0.0
 10
3.818483
 20
0.361599
 30
0.0
  0
LWPOLYLINE
  5
161
100
AcDbEntity
  8
0
 62
7
100
AcDbPolyline
 90
2
 70
0
 10
11.301234
 20
2.241440
 30
0.0
 10
11.308339
 20
2.312022
 30
0.0
  0
LWPOLYLINE
  5
162
100
AcDbEntity
  8
0
 62
7
100
AcDbPolyline
 90
2
 70
0
 10
11.181484
 20
1.122292
 30
0.0
 10
11.151234
 20
1.119248
 30
0.0
  0
LWPOLYLINE
  5
163
100
AcDbEntity
  8
0
 62
7
100
AcDbPolyline
 90
2
 70
0
 10
1.818329
 20
5.004647
 30
0.0
 10
1.871397
 20
4.601331
 30
0.0
  0
LWPOLYLINE
  5
164
100
AcDbEntity
  8
0
 62
7
100
AcDbPolyline
 90
2
 70
0
 10
12.177993
 20
2.591440
 30
0.0
 10
12.704751
 20
2.591440
 30
0.0
  0
LWPOLYLINE
  5
165
100
AcDbEntity
  8
0
 62
7
100
AcDbPolyline
 90
2
 70
0
 10
3.829029
 20
0.348125
 30
0.0
 10
3.840732
 20
0.338160
 30
0.0
  0
LWPOLYLINE
  5
166
100
AcDbEntity
  8
0
 62
7
100
AcDbPolyline
 90
2
 70
0
 10
1.763052
 20
5.811191
 30
0.0
 10
1.763052
 20
6.441884
 30
0.0
  0
LWPOLYLINE
  5
167
100
AcDbEntity
  8
0
 62
7
100
AcDbPolyline
 90
2
 70
0
 10
16.015300
 20
10.326738
 30
0.0
 10
16.015300
 20
9.378576
 30
0.0
  0
LWPOLYLINE
  5
168
100
AcDbEntity
  8
0
 62
7
100
AcDbPolyline
 90
2
 70
0
 10
8.112821
 20
10.961737
 30
0.0
 10
7.072037
 20
10.961737
 30
0.0
  0
LWPOLYLINE
  5
169
100
AcDbEntity
  8
0
 62
7
100
AcDbPolyline
 90
2
 70
0
 10
11.580652
 20
2.584336
 30
0.0
 10
11.651234
 20
2.591440
 30
0.0
  0
LWPOLYLINE
  5
16a
100
AcDbEntity
  8
0
 62
7
100
AcDbPolyline
 90
2
 70
0
 10
1.763052
 20
6.441884
 30
0.0
 10
1.763052
 20
7.072577
 30
0.0
  0
LWPOLYLINE
  5
16b
100
AcDbEntity
  8
0
 62
7
100
AcDbPolyline
 90
2
 70
0
 10
2.971295
 20
1.811675
 30
0.0
 10
3.138864
 20
1.525043
 30
0.0
  0
LWPOLYLINE
  5
16c
100
AcDbEntity
  8
0
 62
7
100
AcDbPolyline
 90
2
 70
0
 10
1.793857
 20
10.931001
 30
0.0
 10
1.809393
 20
10.943818
 30
0.0
  0
LWPOLYLINE
  5
16d
100
AcDbEntity
  8
0
 62
7
100
AcDbPolyline
 90
2
 70
0
 10
11.298190
 20
1.238998
 30
0.0
 10
11.289456
 20
1.210833
 30
0.0
  0
LWPOLYLINE
  5
16e
100
AcDbEntity
  8
0
 62
7
100
AcDbPolyline
 90
2
 70
0
 10
11.514932
 20
2.563957
 30
0.0
 10
11.580652
 20
2.584336
 30
0.0
  0
LWPOLYLINE
  5
16f
100
AcDbEntity
  8
0
 62
7
100
AcDbPolyline
 90
2
 70
0
 10
8.203426
 20
1.119248
 30
0.0
 10
8.940378
 20
1.119248
 30
0.0
  0
LWPOLYLINE
  5
170
100
AcDbEntity
  8
0
 62
7
100
AcDbPolyline
 90
2
 70
0
 10
1.763052
 20
7.072577
 30
0.0
 10
1.763052
 20
7.703271
 30
0.0
  0
LWPOLYLINE
  5
171
100
AcDbEntity
  8
0
 62
7
100
AcDbPolyline
 90
2
 70
0
 10
7.072037
 20
10.961737
 30
0.0
 10
6.031254
 20
10.961737
 30
0.0
  0
LWPOLYLINE
  5
172
100
AcDbEntity
  8
0
 62
7
100
AcDbPolyline
 90
2
 70
0
 10
11.308339
 20
2.312022
 30
0.0
 10
11.328717
 20
2.377742
 30
0.0
  0
LWPOLYLINE
  5
173
100
AcDbEntity
  8
0
 62
7
100
AcDbPolyline
 90
2
 70
0
 10
11.301234
 20
2.241440
 30
0.0
 10
11.301234
 20
2.119636
 30
0.0
  0
LWPOLYLINE
  5
174
100
AcDbEntity
  8
0
 62
7
100
AcDbPolyline
 90
2
 70
0
 10
11.289456
 20
1.210833
 30
0.0
 10
11.275635
 20
1.185352
 30
0.0
  0
LWPOLYLINE
  5
175
100
AcDbEntity
  8
0
 62
7
100
AcDbPolyline
 90
2
 70
0
 10
5.255617
 20
1.119248
 30
0.0
 10
5.992569
 20
1.119248
 30
0.0
  0
LWPOLYLINE
  5
176
100
AcDbEntity
  8
0
 62
7
100
AcDbPolyline
 90
2
 70
0
 10
12.461253
 20
10.911876
 30
0.0
 10
11.368256
 20
10.948848
 30
0.0
  0
LWPOLYLINE
  5
177
100
AcDbEntity
  8
0
 62
7
100
AcDbPolyline
 90
2
 70
0
 10
10.194388
 20
10.961737
 30
0.0
 10
9.153604
 20
10.961737
 30
0.0
  0
LWPOLYLINE
  5
178
100
AcDbEntity
  8
0
 62
7
100
AcDbPolyline
 90
2
 70
0
 10
16.015300
 20
8.430414
 30
0.0
 10
16.015300
 20
7.482251
 30
0.0
  0
LWPOLYLINE
  5
179
100
AcDbEntity
  8
0
 62
7
100
AcDbPolyline
 90
2
 70
0
 10
1.944008
 20
4.200889
 30
0.0
 10
2.038100
 20
3.805501
 30
0.0
  0
LWPOLYLINE
  5
17a
100
AcDbEntity
  8
0
 62
7
100
AcDbPolyline
 90
2
 70
0
 10
13.758267
 20
2.591440
 30
0.0
 10
14.285025
 20
2.591440
 30
0.0
  0
LWPOLYLINE
  5
17b
100
AcDbEntity
  8
0
 62
7
100
AcDbPolyline
 90
2
 70
0
 10
1.763077
 20
5.811182
 30
0.0
 10
1.782869
 20
5.408657
 30
0.0
  0
LWPOLYLINE
  5
17c
100
AcDbEntity
  8
0
 62
7
100
AcDbPolyline
 90
2
 70
0
 10
13.450065
 20
10.853365
 30
0.0
 10
12.461253
 20
10.911876
 30
0.0
  0
LWPOLYLINE
  5
17d
100
AcDbEntity
  8
0
 62
7
100
AcDbPolyline
 90
2
 70
0
 10
9.677330
 20
1.119248
 30
0.0
 10
10.414282
 20
1.119248
 30
0.0
  0
LWPOLYLINE
  5
17e
100
AcDbEntity
  8
0
 62
7
100
AcDbPolyline
 90
2
 70
0
 10
2.155610
 20
3.417347
 30
0.0
 10
2.298475
 20
3.038606
 30
0.0
  0
LWPOLYLINE
  5
17f
100
AcDbEntity
  8
0
 62
7
100
AcDbPolyline
 90
2
 70
0
 10
3.914975
 20
0.343238
 30
0.0
 10
4.082545
 20
0.440252
 30
0.0
  0
LWPOLYLINE
  5
180
100
AcDbEntity
  8
0
 62
7
100
AcDbPolyline
 90
2
 70
0
 10
11.301234
 20
1.997832
 30
0.0
 10
11.301234
 20
1.876028
 30
0.0
  0
LWPOLYLINE
  5
181
100
AcDbEntity
  8
0
 62
7
100
AcDbPolyline
 90
2
 70
0
 10
12.704751
 20
2.591440
 30
0.0
 10
13.231509
 20
2.591440
 30
0.0
  0
LWPOLYLINE
  5
182
100
AcDbEntity
  8
0
 62
7
100
AcDbPolyline
 90
2
 70
0
 10
15.897147
 20
10.454795
 30
0.0
 10
15.558232
 20
10.574029
 30
0.0
  0
LWPOLYLINE
  5
183
100
AcDbEntity
  8
0
 62
7
100
AcDbPolyline
 90
2
 70
0
 10
11.301234
 20
1.388812
 30
0.0
 10
11.301234
 20
1.269248
 30
0.0
  0
LWPOLYLINE
  5
184
100
AcDbEntity
  8
0
 62
7
100
AcDbPolyline
 90
2
 70
0
 10
15.558232
 20
10.574029
 30
0.0
 10
15.021869
 20
10.681898
 30
0.0
  0
LWPOLYLINE
  5
185
100
AcDbEntity
  8
0
 62
7
100
AcDbPolyline
 90
2
 70
0
 10
2.908904
 20
10.961737
 30
0.0
 10
1.868121
 20
10.961737
 30
0.0
  0
LWPOLYLINE
  5
186
100
AcDbEntity
  8
0
 62
7
100
AcDbPolyline
 90
2
 70
0
 10
15.949196
 20
2.617040
 30
0.0
 10
15.923715
 20
2.603218
 30
0.0
  0
LWPOLYLINE
  5
187
100
AcDbEntity
  8
0
 62
7
100
AcDbPolyline
 90
2
 70
0
 10
1.763052
 20
9.595351
 30
0.0
 10
1.763052
 20
10.226044
 30
0.0
  0
LWPOLYLINE
  5
188
100
AcDbEntity
  8
0
 62
7
100
AcDbPolyline
 90
2
 70
0
 10
11.301234
 20
1.632420
 30
0.0
 10
11.301234
 20
1.510616
 30
0.0
  0
LWPOLYLINE
  5
189
100
AcDbEntity
  8
0
 62
7
100
AcDbPolyline
 90
2
 70
0
 10
4.990471
 20
10.961737
 30
0.0
 10
3.949687
 20
10.961737
 30
0.0
  0
LWPOLYLINE
  5
18a
100
AcDbEntity
  8
0
 62
7
100
AcDbPolyline
 90
2
 70
0
 10
2.636156
 20
2.384939
 30
0.0
 10
2.803725
 20
2.098307
 30
0.0
  0
LWPOLYLINE
  5
18b
100
AcDbEntity
  8
0
 62
7
100
AcDbPolyline
 90
2
 70
0
 10
11.455477
 20
2.531707
 30
0.0
 10
11.514932
 20
2.563957
 30
0.0
  0
LWPOLYLINE
  5
18c
100
AcDbEntity
  8
0
 62
7
100
AcDbPolyline
 90
2
 70
0
 10
3.949687
 20
10.961737
 30
0.0
 10
2.908904
 20
10.961737
 30
0.0
  0
LWPOLYLINE
  5
18d
100
AcDbEntity
  8
0
 62
7
100
AcDbPolyline
 90
2
 70
0
 10
11.403688
 20
2.488986
 30
0.0
 10
11.455477
 20
2.531707
 30
0.0
  0
LWPOLYLINE
  5
18e
100
AcDbEntity
  8
0
 62
7
100
AcDbPolyline
 90
2
 70
0
 10
1.781040
 20
10.915465
 30
0.0
 10
1.793857
 20
10.931001
 30
0.0
  0
LWPOLYLINE
  5
18f
100
AcDbEntity
  8
0
 62
7
100
AcDbPolyline
 90
2
 70
0
 10
11.235130
 20
1.144848
 30
0.0
 10
11.209650
 20
1.131026
 30
0.0
  0
LWPOLYLINE
  5
190
100
AcDbEntity
  8
0
 62
7
100
AcDbPolyline
 90
2
 70
0
 10
16.015300
 20
9.378576
 30
0.0
 10
16.015300
 20
8.430414
 30
0.0
  0
LWPOLYLINE
  5
191
100
AcDbEntity
  8
0
 62
7
100
AcDbPolyline
 90
2
 70
0
 10
15.021869
 20
10.681898
 30
0.0
 10
14.311375
 20
10.775858
 30
0.0
  0
LWPOLYLINE
  5
192
100
AcDbEntity
  8
0
 62
7
100
AcDbPolyline
 90
2
 70
0
 10
11.360967
 20
2.437198
 30
0.0
 10
11.403688
 20
2.488986
 30
0.0
  0
LWPOLYLINE
  5
193
100
AcDbEntity
  8
0
 62
7
100
AcDbPolyline
 90
2
 70
0
 10
1.763052
 20
7.703271
 30
0.0
 10
1.763052
 20
8.333964
 30
0.0
  0
LWPOLYLINE
  5
194
100
AcDbEntity
  8
0
 62
7
100
AcDbPolyline
 90
2
 70
0
 10
11.301234
 20
1.876028
 30
0.0
 10
11.301234
 20
1.754224
 30
0.0
  0
LWPOLYLINE
  5
195
100
AcDbEntity
  8
0
 62
7
100
AcDbPolyline
 90
2
 70
0
 10
11.257326
 20
1.163156
 30
0.0
 10
11.235130
 20
1.144848
 30
0.0
  0
LWPOLYLINE
  5
196
100
AcDbEntity
  8
0
 62
7
100
AcDbPolyline
 90
2
 70
0
 10
4.920392
 20
0.925321
 30
0.0
 10
5.087961
 20
1.022335
 30
0.0
  0
LWPOLYLINE
  5
197
100
AcDbEntity
  8
0
 62
7
100
AcDbPolyline
 90
2
 70
0
 10
2.803725
 20
2.098307
 30
0.0
 10
2.971295
 20
1.811675
 30
0.0
  0
LWPOLYLINE
  5
198
100
AcDbEntity
  8
0
 62
7
100
AcDbPolyline
 90
2
 70
0
 10
14.811783
 20
2.591440
 30
0.0
 10
15.338541
 20
2.591440
 30
0.0
  0
LWPOLYLINE
  5
199
100
AcDbEntity
  8
0
 62
7
100
AcDbPolyline
 90
2
 70
0
 10
5.087961
 20
1.022335
 30
0.0
 10
5.255531
 20
1.119349
 30
0.0
  0
LWPOLYLINE
  5
19a
100
AcDbEntity
  8
0
 62
7
100
AcDbPolyline
 90
2
 70
0
 10
14.311375
 20
10.775858
 30
0.0
 10
13.450065
 20
10.853365
 30
0.0
  0
LWPOLYLINE
  5
19b
100
AcDbEntity
  8
0
 62
7
100
AcDbPolyline
 90
2
 70
0
 10
11.301234
 20
2.119636
 30
0.0
 10
11.301234
 20
1.997832
 30
0.0
  0
LWPOLYLINE
  5
19c
100
AcDbEntity
  8
0
 62
7
100
AcDbPolyline
 90
2
 70
0
 10
11.301234
 20
1.510616
 30
0.0
 10
11.301234
 20
1.388812
 30
0.0
  0
LWPOLYLINE
  5
19d
100
AcDbEntity
  8
0
 62
7
100
AcDbPolyline
 90
2
 70
0
 10
6.031254
 20
10.961737
 30
0.0
 10
4.990471
 20
10.961737
 30
0.0
  0
LWPOLYLINE
  5
19e
100
AcDbEntity
  8
0
 62
7
100
AcDbPolyline
 90
2
 70
0
 10
4.250114
 20
0.537266
 30
0.0
 10
4.417684
 20
0.634280
 30
0.0
  0
LWPOLYLINE
  5
19f
100
AcDbEntity
  8
0
 62
7
100
AcDbPolyline
 90
2
 70
0
 10
3.641573
 20
0.665148
 30
0.0
 10
3.809142
 20
0.378516
 30
0.0
  0
LWPOLYLINE
  5
1a0
100
AcDbEntity
  8
0
 62
7
100
AcDbPolyline
 90
2
 70
0
 10
16.015300
 20
2.741440
 30
0.0
 10
16.012255
 20
2.711190
 30
0.0
  0
ENDSEC
  0
SECTION
  2
OBJECTS
  0
DICTIONARY
  5
C
330
0
100
AcDbDictionary
  3
ACAD_GROUP
350
D
  3
ACAD_MLINESTYLE
350
17
  0
DICTIONARY
  5
D
330
C
100
AcDbDictionary
  0
DICTIONARY
  5
1A
330
C
100
AcDbDictionary
  0
DICTIONARY
  5
17
330
C
100
AcDbDictionary
  3
STANDARD
350
18
  0
DICTIONARY
  5
19
330
C
100
AcDbDictionary
  0
ENDSEC
  0
EOF
